<svg width="200" height="200" viewBox="0 0 200 200" fill="none" xmlns="http://www.w3.org/2000/svg">
<g clip-path="url(#clip0_16_195)">
<path d="M121.833 22.1833C123.415 22.6258 124.894 23.3758 126.186 24.3902C127.478 25.4047 128.557 26.6638 129.362 28.0955C130.166 29.5273 130.681 31.1036 130.877 32.7345C131.072 34.3653 130.944 36.0186 130.5 37.5999L93.575 169.158C92.6799 172.351 90.5532 175.057 87.6628 176.682C84.7724 178.306 81.355 178.716 78.1625 177.821C74.97 176.926 72.2637 174.799 70.6392 171.909C69.0147 169.018 68.6049 165.601 69.5 162.408L106.425 30.8333C106.868 29.2523 107.619 27.7742 108.634 26.4833C109.649 25.1925 110.908 24.1143 112.34 23.3102C113.771 22.5062 115.347 21.992 116.978 21.7973C118.608 21.6025 120.261 21.7308 121.842 22.1749L121.833 22.1833ZM63 55.8083C65.3408 58.152 66.6557 61.3291 66.6557 64.6416C66.6557 67.9541 65.3408 71.1312 63 73.475L36.5 100L63.0167 126.517C65.3605 128.862 66.6768 132.042 66.6761 135.357C66.6753 138.673 65.3575 141.852 63.0125 144.196C60.6675 146.54 57.4875 147.856 54.1721 147.855C50.8566 147.854 47.6772 146.537 45.3333 144.192L9.975 108.833C7.63416 106.49 6.31934 103.312 6.31934 100C6.31934 96.6874 7.63416 93.5104 9.975 91.1666L45.325 55.8083C46.4858 54.6467 47.8642 53.7252 49.3813 53.0966C50.8984 52.4679 52.5245 52.1443 54.1667 52.1443C55.8089 52.1443 57.435 52.4679 58.9521 53.0966C60.4692 53.7252 61.8392 54.6467 63 55.8083ZM137 73.475C135.772 72.3306 134.787 70.9506 134.104 69.4173C133.42 67.8839 133.053 66.2287 133.023 64.5503C132.994 62.8719 133.303 61.2048 133.931 59.6483C134.56 58.0919 135.496 56.678 136.683 55.491C137.87 54.304 139.284 53.3683 140.84 52.7396C142.396 52.1109 144.064 51.8021 145.742 51.8318C147.42 51.8614 149.076 52.2287 150.609 52.9119C152.142 53.5951 153.522 54.5802 154.667 55.8083L190.025 91.1583C192.368 93.5024 193.685 96.6812 193.685 99.9958C193.685 103.31 192.368 106.489 190.025 108.833L154.675 144.192C153.514 145.353 152.137 146.274 150.62 146.902C149.103 147.531 147.478 147.855 145.836 147.855C144.195 147.856 142.569 147.533 141.052 146.905C139.535 146.277 138.157 145.356 136.996 144.196C135.835 143.035 134.914 141.657 134.285 140.141C133.656 138.624 133.333 136.999 133.332 135.357C133.332 133.715 133.655 132.09 134.283 130.573C134.911 129.056 135.831 127.678 136.992 126.517L163.508 100L137 73.475Z" fill="#007AFF"/>
</g>
<defs>
<clipPath id="clip0_16_195">
<rect width="200" height="200" fill="white"/>
</clipPath>
</defs>
</svg>
