<svg width="300" height="300" viewBox="0 0 300 300" fill="none" xmlns="http://www.w3.org/2000/svg">
<path d="M271.875 146.443C271.796 144.981 271.202 143.594 270.198 142.528C269.194 141.462 267.846 140.786 266.391 140.619L251.367 138.188C250.692 138.077 250.07 137.75 249.595 137.257C249.119 136.764 248.816 136.131 248.731 135.451C248.443 133.606 248.145 131.689 247.734 129.873C247.602 129.212 247.68 128.527 247.956 127.912C248.232 127.298 248.694 126.785 249.276 126.445L262.623 119.033C263.949 118.358 264.979 117.218 265.52 115.832C266.06 114.446 266.072 112.91 265.553 111.516L263.238 105.129C262.731 103.73 261.725 102.567 260.414 101.863C259.102 101.16 257.577 100.964 256.131 101.314L241.16 104.244C240.491 104.364 239.801 104.269 239.188 103.973C238.576 103.678 238.073 103.196 237.75 102.598C236.877 100.963 235.928 99.2989 234.938 97.6641C234.578 97.0817 234.409 96.4014 234.456 95.7185C234.502 95.0355 234.761 94.3841 235.195 93.8555L245.156 82.3477C246.168 81.2613 246.749 79.8435 246.792 78.3595C246.834 76.8756 246.334 75.4271 245.385 74.2852L241.037 69.0645C240.091 67.9186 238.754 67.1644 237.284 66.9479C235.814 66.7315 234.316 67.0681 233.08 67.8926L219.973 75.7618C219.392 76.1099 218.714 76.262 218.04 76.1956C217.366 76.1291 216.731 75.8476 216.229 75.3926C214.781 74.1211 213.299 72.8965 211.91 71.7657C211.377 71.3451 210.992 70.7655 210.811 70.1112C210.63 69.4569 210.662 68.7619 210.902 68.127L216.328 53.8301C216.919 52.466 216.988 50.9323 216.523 49.5205C216.057 48.1086 215.089 46.917 213.803 46.1719L207.891 42.7207C206.603 41.9784 205.087 41.7371 203.633 42.0431C202.179 42.3491 200.889 43.1808 200.01 44.3789L190.43 56.4141C190.085 56.9372 189.569 57.3239 188.97 57.5079C188.372 57.6918 187.727 57.6614 187.149 57.4219C186.791 57.2754 183.768 56.0391 181.418 55.2539C180.774 55.0439 180.213 54.6331 179.819 54.0818C179.425 53.5304 179.217 52.8673 179.227 52.1895L179.455 36.9141C179.537 35.4225 179.072 33.9524 178.148 32.7789C177.223 31.6054 175.903 30.8091 174.434 30.5391L167.725 29.3672C166.263 29.1147 164.759 29.4014 163.493 30.1741C162.227 30.9468 161.284 32.153 160.84 33.5684L155.859 48.1055C155.633 48.7508 155.206 49.3067 154.641 49.6916C154.076 50.0765 153.402 50.2701 152.719 50.2442H147.006C146.328 50.2581 145.663 50.0578 145.105 49.6717C144.548 49.2856 144.126 48.7334 143.9 48.0938L138.943 33.6387C138.507 32.2129 137.566 30.995 136.297 30.2131C135.028 29.4311 133.517 29.1387 132.047 29.3907L125.326 30.5625C123.866 30.8304 122.553 31.6189 121.631 32.7817C120.709 33.9444 120.239 35.4023 120.311 36.8848L120.545 52.2129C120.55 52.9009 120.332 53.572 119.925 54.1263C119.517 54.6805 118.941 55.0884 118.283 55.2891C116.942 55.8106 114.029 56.9239 112.705 57.4161C111.533 57.8379 110.256 57.375 109.225 56.1856L99.6974 44.4668C98.8232 43.2614 97.5343 42.4216 96.0785 42.109C94.6226 41.7964 93.1026 42.0331 91.8107 42.7735L85.9161 46.1895C84.6156 46.936 83.6373 48.1374 83.17 49.5622C82.7026 50.9871 82.7791 52.5345 83.3849 53.9063L88.8048 68.168C89.0412 68.8042 89.0723 69.4986 88.8936 70.1533C88.7149 70.8081 88.3355 71.3905 87.8087 71.8184C86.3849 72.9903 84.9259 74.1621 83.4728 75.4629C82.9738 75.9143 82.3435 76.1942 81.674 76.2617C81.0046 76.3292 80.3311 76.1807 79.7521 75.8379L66.797 67.8164C65.553 67.0073 64.0565 66.6798 62.5882 66.8956C61.12 67.1113 59.781 67.8555 58.8224 68.9883L54.4923 74.1973C53.5305 75.3315 53.0208 76.7805 53.0608 78.2671C53.1008 79.7536 53.6877 81.1732 54.7091 82.2539L64.7169 93.75C65.161 94.2681 65.4265 94.9154 65.474 95.5961C65.5215 96.2768 65.3485 96.9547 64.9806 97.5293C63.9786 99.1231 63.0235 100.799 62.1564 102.475C61.832 103.077 61.325 103.562 60.7081 103.859C60.0913 104.156 59.3963 104.25 58.7228 104.127L43.7755 101.238C42.3283 100.889 40.8032 101.085 39.4912 101.789C38.1792 102.492 37.1721 103.654 36.6622 105.053L34.3185 111.428C33.8004 112.824 33.8125 114.361 34.3525 115.749C34.8925 117.137 35.9228 118.278 37.2481 118.957L50.5958 126.369C51.1961 126.7 51.6722 127.218 51.9523 127.844C52.2324 128.47 52.3013 129.17 52.1485 129.838L52.0079 130.582C51.7032 132.217 51.422 133.764 51.1524 135.41C51.0593 136.081 50.7563 136.705 50.287 137.194C49.8176 137.682 49.2058 138.009 48.5392 138.129L33.4864 140.561C32.0144 140.741 30.6584 141.452 29.6718 142.559C28.6852 143.666 28.1354 145.095 28.1251 146.578V153.363C28.1165 154.852 28.6607 156.291 29.6522 157.402C30.6437 158.512 32.0121 159.215 33.4923 159.375L48.5392 161.801C49.2153 161.911 49.8377 162.237 50.313 162.73C50.7883 163.223 51.0911 163.857 51.1759 164.537C51.463 166.389 51.7618 168.299 52.172 170.115C52.3041 170.776 52.2267 171.461 51.9504 172.076C51.6741 172.69 51.2128 173.203 50.631 173.543L37.2892 180.967C35.9638 181.642 34.933 182.782 34.3928 184.168C33.8526 185.554 33.8408 187.09 34.3595 188.484L36.7032 194.871C37.212 196.269 38.2179 197.431 39.5289 198.135C40.84 198.838 42.3642 199.035 43.8106 198.686L58.7814 195.785C59.4509 195.664 60.1416 195.758 60.7544 196.053C61.3671 196.349 61.8703 196.832 62.1915 197.432C63.0704 199.072 64.0138 200.731 65.004 202.365C65.3654 202.947 65.5349 203.628 65.4886 204.311C65.4424 204.994 65.1827 205.646 64.7462 206.174L54.7853 217.676C53.7615 218.754 53.1668 220.169 53.1128 221.655C53.0589 223.14 53.5494 224.595 54.4923 225.744L58.8341 230.965C59.7791 232.112 61.1166 232.867 62.5869 233.083C64.0572 233.3 65.5555 232.963 66.7911 232.137L79.8985 224.268C80.4797 223.919 81.1574 223.767 81.8316 223.834C82.5058 223.9 83.1407 224.182 83.6427 224.637C85.0958 225.908 86.5724 227.133 87.961 228.264C88.4936 228.685 88.8787 229.264 89.0608 229.918C89.243 230.572 89.2129 231.267 88.9747 231.902L83.5431 246.199C82.9522 247.563 82.883 249.097 83.3485 250.509C83.8141 251.921 84.782 253.112 86.0685 253.857L91.9923 257.279C93.2789 258.022 94.7944 258.264 96.2486 257.96C97.7027 257.655 98.9933 256.824 99.8732 255.627L109.57 243.703C110.391 242.689 111.68 242.238 112.635 242.625C114.674 243.469 116.039 243.943 118.459 244.752C119.104 244.963 119.664 245.373 120.059 245.924C120.455 246.476 120.664 247.138 120.656 247.816L120.422 263.08C120.343 264.571 120.809 266.04 121.733 267.213C122.657 268.386 123.975 269.183 125.443 269.455L132.152 270.627C133.614 270.882 135.119 270.596 136.386 269.823C137.653 269.05 138.595 267.843 139.037 266.426L144.018 251.912C144.243 251.266 144.67 250.71 145.235 250.325C145.801 249.94 146.475 249.747 147.158 249.773H152.871C153.549 249.759 154.215 249.959 154.773 250.345C155.331 250.731 155.752 251.284 155.977 251.924L160.94 266.379C161.324 267.634 162.1 268.732 163.155 269.514C164.209 270.295 165.487 270.718 166.799 270.721C167.149 270.722 167.498 270.69 167.842 270.627L174.563 269.455C176.022 269.187 177.335 268.399 178.258 267.236C179.18 266.073 179.649 264.615 179.578 263.133L179.344 247.805C179.339 247.129 179.55 246.47 179.945 245.922C180.34 245.375 180.899 244.967 181.541 244.758C183.791 244.002 185.373 243.393 186.762 242.854L187.113 242.719C188.93 242.092 189.809 242.854 190.318 243.486L200.133 255.574C201.013 256.77 202.302 257.599 203.755 257.904C205.208 258.209 206.722 257.968 208.008 257.227L213.908 253.811C215.199 253.065 216.17 251.87 216.636 250.455C217.101 249.039 217.03 247.501 216.434 246.135L211.02 231.873C210.781 231.238 210.748 230.543 210.926 229.888C211.103 229.233 211.483 228.65 212.01 228.223C213.434 227.051 214.893 225.879 216.346 224.578C216.848 224.125 217.482 223.846 218.155 223.78C218.828 223.715 219.504 223.867 220.084 224.215L233.203 232.066C234.447 232.877 235.944 233.205 237.412 232.989C238.881 232.773 240.22 232.029 241.178 230.895L245.514 225.68C246.476 224.546 246.985 223.096 246.945 221.61C246.905 220.123 246.318 218.704 245.297 217.623L235.301 206.098C234.857 205.58 234.591 204.932 234.544 204.252C234.496 203.571 234.669 202.893 235.037 202.318C236.039 200.731 236.994 199.055 237.861 197.373C238.187 196.772 238.694 196.288 239.311 195.991C239.927 195.695 240.622 195.6 241.295 195.721L256.225 198.633C257.672 198.982 259.197 198.786 260.509 198.083C261.821 197.379 262.828 196.217 263.338 194.818L265.652 188.443C266.17 187.048 266.158 185.511 265.618 184.125C265.078 182.738 264.048 181.598 262.723 180.92L249.363 173.496C248.772 173.162 248.303 172.645 248.028 172.024C247.752 171.402 247.684 170.708 247.834 170.045L247.975 169.301C248.279 167.666 248.561 166.119 248.83 164.473C248.923 163.802 249.226 163.178 249.696 162.689C250.165 162.201 250.777 161.874 251.443 161.754L266.496 159.328C267.972 159.15 269.332 158.44 270.322 157.331C271.312 156.223 271.864 154.791 271.875 153.305V146.443ZM106.377 201.522C105.647 202.791 104.626 203.869 103.398 204.668C102.17 205.466 100.77 205.962 99.3134 206.114C97.8566 206.266 96.3846 206.07 95.0182 205.543C93.6518 205.016 92.43 204.172 91.4532 203.08C78.2529 188.485 70.9644 169.494 71.0099 149.815C71.0554 130.135 78.4316 111.179 91.6993 96.6446C92.6812 95.5536 93.9082 94.7116 95.2793 94.1878C96.6504 93.6641 98.1263 93.4736 99.5854 93.6321C101.045 93.7906 102.445 94.2935 103.672 95.0995C104.898 95.9054 105.916 96.9913 106.641 98.2676L133.389 145.348C134.192 146.752 134.614 148.341 134.614 149.959C134.614 151.577 134.192 153.166 133.389 154.57L106.377 201.522ZM150 229.166C144.424 229.167 138.864 228.578 133.412 227.408C131.992 227.091 130.666 226.444 129.543 225.518C128.42 224.593 127.53 223.417 126.946 222.084C126.363 220.751 126.101 219.299 126.183 217.846C126.265 216.393 126.688 214.98 127.418 213.721L154.371 166.846C155.182 165.433 156.351 164.26 157.761 163.444C159.17 162.628 160.77 162.199 162.399 162.199H216.387C217.841 162.197 219.275 162.537 220.574 163.193C221.872 163.848 222.997 164.8 223.859 165.972C224.721 167.143 225.294 168.501 225.533 169.936C225.772 171.37 225.67 172.841 225.234 174.229C214.986 206.057 185.156 229.166 150 229.166ZM154.401 133.131L127.734 86.1739C127.012 84.9129 126.596 83.4996 126.521 82.0483C126.445 80.5969 126.712 79.1481 127.3 77.8191C127.888 76.49 128.781 75.318 129.906 74.3977C131.031 73.4774 132.356 72.8347 133.775 72.5215C139.11 71.3972 144.548 70.8317 150 70.834C185.156 70.834 214.986 93.9434 225.217 125.789C225.652 127.177 225.755 128.647 225.516 130.082C225.277 131.516 224.703 132.874 223.842 134.046C222.98 135.217 221.854 136.169 220.556 136.825C219.258 137.48 217.824 137.821 216.369 137.818H162.463C160.824 137.822 159.214 137.389 157.797 136.566C156.381 135.742 155.208 134.557 154.401 133.131Z" fill="#007AFF"/>
</svg>
