<svg width="200" height="200" viewBox="0 0 200 200" fill="none" xmlns="http://www.w3.org/2000/svg">
<path d="M41.6667 175C37.0833 175 33.1611 173.369 29.9 170.108C26.6389 166.847 25.0056 162.922 25 158.333V41.6667C25 37.0833 26.6333 33.1611 29.9 29.9C33.1667 26.6389 37.0889 25.0056 41.6667 25H158.333C162.917 25 166.842 26.6333 170.108 29.9C173.375 33.1667 175.006 37.0889 175 41.6667V158.333C175 162.917 173.369 166.842 170.108 170.108C166.847 173.375 162.922 175.006 158.333 175H41.6667ZM58.3333 141.667H100V125H58.3333V141.667ZM66.6667 108.333L100 91.6667L133.333 108.333V41.6667H66.6667V108.333Z" fill="#007AFF"/>
</svg>
