<svg width="200" height="200" viewBox="0 0 200 200" fill="none" xmlns="http://www.w3.org/2000/svg">
<path d="M117.167 82.8333L99.9999 75L117.167 67.1666L125 50L132.833 67.1666L150 75L132.833 82.8333L125 100L117.167 82.8333ZM33.3333 116.667L41.1666 99.5L58.3333 91.6666L41.1666 83.8333L33.3333 66.6666L25.4999 83.8333L8.33325 91.6666L25.4999 99.5L33.3333 116.667ZM70.8332 75L79.9166 54.9166L99.9999 45.8333L79.9166 36.75L70.8332 16.6666L61.7499 36.75L41.6666 45.8333L61.7499 54.9166L70.8332 75ZM37.4999 170.833L87.4999 120.75L120.833 154.083L191.667 74.4166L179.917 62.6666L120.833 129.083L87.4999 95.75L24.9999 158.333L37.4999 170.833Z" fill="#007AFF"/>
</svg>
