<svg width="200" height="200" viewBox="0 0 200 200" fill="none" xmlns="http://www.w3.org/2000/svg">
<path fill-rule="evenodd" clip-rule="evenodd" d="M91.2 10.4167H108.8C124.117 10.4167 136.25 10.4167 145.742 11.6917C155.508 13.0084 163.417 15.7751 169.658 22.0084C175.892 28.2501 178.658 36.1584 179.975 45.9251C181.25 55.4251 181.25 67.5501 181.25 82.8668V117.133C181.25 132.45 181.25 144.583 179.975 154.075C178.658 163.842 175.892 171.75 169.658 177.992C163.417 184.225 155.508 186.992 145.742 188.308C136.242 189.583 124.117 189.583 108.8 189.583H91.2C75.8833 189.583 63.75 189.583 54.2583 188.308C44.4917 186.992 36.5833 184.225 30.3417 177.992C24.1083 171.75 21.3417 163.842 20.025 154.075C18.75 144.575 18.75 132.45 18.75 117.133V82.8668C18.75 67.5501 18.75 55.4168 20.025 45.9251C21.3417 36.1584 24.1083 28.2501 30.3417 22.0084C36.5833 15.7751 44.4917 13.0084 54.2583 11.6917C63.7583 10.4167 75.8833 10.4167 91.2 10.4167ZM55.9167 24.0834C47.5333 25.2084 42.7 27.3251 39.1667 30.8501C35.65 34.3751 33.5333 39.2084 32.4083 47.5918C31.2583 56.1584 31.2417 67.4418 31.2417 83.3334V116.667C31.2417 132.558 31.2583 143.85 32.4083 152.417C33.5333 160.792 35.65 165.625 39.175 169.15C42.7 172.675 47.5333 174.792 55.9167 175.917C64.4833 177.067 75.7667 177.083 91.6583 177.083H108.325C124.217 177.083 135.508 177.067 144.075 175.917C152.45 174.792 157.283 172.675 160.808 169.15C164.333 165.625 166.45 160.792 167.575 152.408C168.725 143.85 168.742 132.558 168.742 116.667V83.3334C168.742 67.4418 168.725 56.1584 167.575 47.5834C166.45 39.2084 164.333 34.3751 160.808 30.8501C157.283 27.3251 152.45 25.2084 144.067 24.0834C135.508 22.9334 124.217 22.9167 108.325 22.9167H91.6583C75.7667 22.9167 64.4917 22.9334 55.9167 24.0834ZM60.4167 83.3334C60.4167 81.6758 61.0751 80.0861 62.2472 78.914C63.4193 77.7419 65.0091 77.0834 66.6667 77.0834H133.333C134.991 77.0834 136.581 77.7419 137.753 78.914C138.925 80.0861 139.583 81.6758 139.583 83.3334C139.583 84.991 138.925 86.5807 137.753 87.7528C136.581 88.9249 134.991 89.5834 133.333 89.5834H66.6667C65.0091 89.5834 63.4193 88.9249 62.2472 87.7528C61.0751 86.5807 60.4167 84.991 60.4167 83.3334ZM60.4167 116.667C60.4167 115.009 61.0751 113.419 62.2472 112.247C63.4193 111.075 65.0091 110.417 66.6667 110.417H108.333C109.991 110.417 111.581 111.075 112.753 112.247C113.925 113.419 114.583 115.009 114.583 116.667C114.583 118.324 113.925 119.914 112.753 121.086C111.581 122.258 109.991 122.917 108.333 122.917H66.6667C65.0091 122.917 63.4193 122.258 62.2472 121.086C61.0751 119.914 60.4167 118.324 60.4167 116.667Z" fill="#007AFF"/>
</svg>
