<svg width="300" height="300" viewBox="0 0 300 300" fill="none" xmlns="http://www.w3.org/2000/svg">
<g filter="url(#filter0_d_19_25)">
<path fill-rule="evenodd" clip-rule="evenodd" d="M171.177 76.123C170.427 75.6898 170 74.8664 170 74C170 62.9543 161.046 54 150 54C138.954 54 130 62.9543 130 74C130 74.7656 129.619 75.4908 128.956 75.8736L98.7733 93.2997C97.0453 94.2974 94.914 94.119 93.1399 93.2059C90.4004 91.7959 87.2932 91 84 91C72.9543 91 64 99.9543 64 111C64 117.698 67.2924 123.627 72.3472 127.256C73.8774 128.355 74.9693 130.037 74.9693 131.921L74.9693 168.079C74.9693 169.963 73.8774 171.645 72.3472 172.744C67.2924 176.373 64 182.302 64 189C64 200.046 72.9543 209 84 209C87.4893 209 90.7699 208.106 93.6255 206.536C95.4271 205.545 97.629 205.323 99.4097 206.351L128.415 223.097C129.437 223.687 130 224.82 130 226C130 237.046 138.954 246 150 246C161.046 246 170 237.046 170 226C170 224.485 170.699 223.014 172.011 222.256L200.077 206.053C201.901 205 204.161 205.258 205.983 206.315C208.929 208.022 212.35 209 216 209C227.046 209 236 200.046 236 189C236 181.966 232.368 175.779 226.878 172.214C225.211 171.132 224 169.38 224 167.392V132.608C224 130.62 225.211 128.868 226.878 127.786C232.368 124.221 236 118.034 236 111C236 99.9543 227.046 91 216 91C212.659 91 209.51 91.8191 206.742 93.2673C204.961 94.1991 202.812 94.3876 201.072 93.3826L171.177 76.123ZM194.343 192.043C195.413 191.425 196 190.236 196 189C196 181.65 199.965 175.226 205.872 171.75C207.67 170.692 209 168.876 209 166.79V133.21C209 131.124 207.67 129.308 205.872 128.25C199.965 124.774 196 118.35 196 111C196 109.131 195.17 107.296 193.552 106.362L166.463 90.722C164.593 89.642 162.27 89.942 160.428 91.0698C157.391 92.9286 153.821 94 150 94C146.134 94 142.524 92.9029 139.464 91.0031C137.617 89.856 135.277 89.5446 133.394 90.6318L106.561 106.124C104.862 107.105 104 109.038 104 111C104 118.665 99.6883 125.323 93.358 128.68C91.4257 129.705 89.9693 131.583 89.9693 133.771L89.9693 166.229C89.9693 168.417 91.4257 170.295 93.358 171.32C99.6883 174.677 104 181.335 104 189C104 190.57 104.72 192.097 106.08 192.882L133.993 208.997C135.824 210.055 138.094 209.79 139.919 208.723C142.879 206.992 146.324 206 150 206C153.516 206 156.82 206.907 159.691 208.501C161.496 209.502 163.708 209.73 165.496 208.698L194.343 192.043Z" fill="url(#paint0_linear_19_25)"/>
</g>
<defs>
<filter id="filter0_d_19_25" x="14" y="4" width="272" height="292" filterUnits="userSpaceOnUse" color-interpolation-filters="sRGB">
<feFlood flood-opacity="0" result="BackgroundImageFix"/>
<feColorMatrix in="SourceAlpha" type="matrix" values="0 0 0 0 0 0 0 0 0 0 0 0 0 0 0 0 0 0 127 0" result="hardAlpha"/>
<feOffset/>
<feGaussianBlur stdDeviation="25"/>
<feComposite in2="hardAlpha" operator="out"/>
<feColorMatrix type="matrix" values="0 0 0 0 0 0 0 0 0 0 0 0 0 0 0 0 0 0 0.25 0"/>
<feBlend mode="normal" in2="BackgroundImageFix" result="effect1_dropShadow_19_25"/>
<feBlend mode="normal" in="SourceGraphic" in2="effect1_dropShadow_19_25" result="shape"/>
</filter>
<linearGradient id="paint0_linear_19_25" x1="64" y1="54" x2="236" y2="246" gradientUnits="userSpaceOnUse">
<stop stop-color="#7200F4"/>
<stop offset="1" stop-color="#007AFF"/>
</linearGradient>
</defs>
</svg>
